<svg width="14" height="17" viewBox="0 0 14 17" fill="none" xmlns="http://www.w3.org/2000/svg">
<path d="M6.24662 10.0165C6.24662 10.5223 6.13144 10.9013 5.90109 11.1555C5.67073 11.4091 5.33271 11.5366 4.88703 11.5366C4.4597 11.5366 4.13003 11.4063 3.89633 11.1456C3.66431 10.8857 3.54746 10.5088 3.54746 10.0165C3.54746 9.01212 3.99398 8.50992 4.88786 8.50992C5.3252 8.50992 5.66155 8.64025 5.89608 8.90092C6.12977 9.16158 6.24662 9.53346 6.24662 10.0165ZM4.52647 10.0236C4.52647 10.3027 4.55568 10.511 4.61411 10.6484C4.67253 10.7858 4.76601 10.8545 4.89537 10.8545C5.14409 10.8545 5.26845 10.5775 5.26845 10.0236C5.26845 9.47396 5.14409 9.19983 4.89537 9.19983C4.76601 9.19983 4.67169 9.26713 4.61411 9.40242C4.55568 9.537 4.52647 9.74454 4.52647 10.0236ZM8.91907 8.57933L5.76922 13.3988H4.83695L7.9868 8.57933H8.91907ZM10.2244 11.9418C10.2244 12.4454 10.1092 12.8237 9.87888 13.0772C9.64853 13.3315 9.31051 13.4583 8.86482 13.4583C8.4375 13.4583 8.10699 13.328 7.87413 13.0673C7.64127 12.8067 7.52442 12.432 7.52442 11.9418C7.52442 10.9374 7.97094 10.4352 8.86482 10.4352C9.30216 10.4352 9.63851 10.5655 9.87304 10.8262C10.1076 11.0861 10.2244 11.4587 10.2244 11.9418ZM8.50343 11.9482C8.50343 12.2273 8.53264 12.4355 8.59107 12.5729C8.64949 12.7103 8.74297 12.779 8.87233 12.779C9.12105 12.779 9.24541 12.5021 9.24541 11.9482C9.24541 11.3985 9.12105 11.1244 8.87233 11.1244C8.74297 11.1244 8.64866 11.1917 8.59107 11.327C8.53264 11.4622 8.50343 11.6698 8.50343 11.9482ZM6.88594 3.93833C9.16028 7.61175 11.8937 8.69692 11.8937 11.3865C11.8937 13.7006 9.64769 15.5833 6.88594 15.5833C4.12418 15.5833 1.87822 13.7006 1.87822 11.3865C1.87822 8.69692 4.61077 7.61317 6.88594 3.93833ZM6.88594 0C4.93877 6.34525 0.208984 7.2165 0.208984 11.3865C0.208984 14.4875 3.19609 17 6.88594 17C10.5758 17 13.5629 14.4875 13.5629 11.3865C13.5629 7.2165 8.83311 6.34525 6.88594 0Z" fill="black" fill-opacity="0.5"/>
</svg>
